<svg width="14" height="8" viewBox="0 0 14 8" fill="none" xmlns="http://www.w3.org/2000/svg">
<path d="M0.534721 0.453331C0.802655 0.182843 1.23702 0.180984 1.50495 0.45519L7.48546 6.56022C7.75339 6.8335 7.75248 7.27502 7.48363 7.54644C7.35012 7.68122 7.17455 7.75 6.99989 7.75C6.8234 7.75 6.64782 7.68122 6.51431 7.54458L0.533807 1.43954C0.265873 1.16627 0.266787 0.724748 0.534721 0.453331ZM12.4941 0.455283C12.762 0.181077 13.1964 0.182936 13.4643 0.453424C13.7332 0.724841 13.7341 1.16636 13.4671 1.43964L9.49561 5.49417C9.3621 5.63081 9.18561 5.69959 9.01003 5.69959C8.83537 5.69959 8.6598 5.63081 8.52629 5.49603C8.25744 5.22461 8.25653 4.78309 8.52355 4.50981L12.4941 0.455283Z" fill="black"/>
</svg>
