<svg width="10" height="16" viewBox="0 0 10 16" fill="none" xmlns="http://www.w3.org/2000/svg">
<path d="M0.743997 15.7583C0.44646 15.4636 0.419791 15.001 0.670862 14.6783L0.746228 14.594L8.07227 7.41742C8.4002 7.0959 8.93002 7.097 9.25572 7.41962C9.41746 7.57983 9.5 7.79052 9.5 8.00011C9.5 8.1766 9.44268 8.35233 9.32869 8.49872L9.25349 8.5828L1.92745 15.7594C1.59952 16.0809 1.0697 16.0798 0.743997 15.7583ZM0.746339 1.40707C0.417292 1.08555 0.419523 0.56431 0.744108 0.242789C1.04267 -0.0529439 1.51275 -0.0785104 1.84161 0.16609L1.92756 0.239497L6.793 5.00525C6.95697 5.16546 7.03951 5.37725 7.03951 5.58794C7.03951 5.79753 6.95697 6.00822 6.79523 6.16843C6.49667 6.46416 6.0266 6.48973 5.69773 6.24513L5.61178 6.17172L0.746339 1.40707Z" fill="#2396EF"/>
</svg>
