<svg width="28" height="21" viewBox="0 0 28 21" fill="none" xmlns="http://www.w3.org/2000/svg">
<g clip-path="url(#clip0_1_116)">
<path d="M21.6666 4.88632L21.6535 4.8688C21.5856 4.77029 21.4499 4.7484 21.3536 4.81626L19.6898 5.98092C19.5912 6.04879 19.5694 6.18452 19.6372 6.28084L19.6504 6.29836C19.7182 6.39687 19.8539 6.41876 19.9503 6.3509L21.6141 5.18624C21.7104 5.11837 21.7345 4.98264 21.6666 4.88632ZM26.0538 11.4539L25.1518 15.6616C24.9285 16.7081 24.4228 17.5071 23.7048 18.0544C23.2078 18.4331 22.6145 18.6849 21.9468 18.8097L22.5379 20.0751C22.6649 20.3487 22.5467 20.6749 22.273 20.8019C21.9994 20.9288 21.6732 20.8106 21.5462 20.537L20.78 18.8995H7.68413L6.9179 20.537C6.79093 20.8106 6.46474 20.9288 6.19109 20.8019C5.91744 20.6749 5.79922 20.3487 5.92619 20.0751L6.48444 18.8797C5.63065 18.8053 4.9301 18.5317 4.36529 18.0632C3.70633 17.5159 3.25536 16.7212 2.98608 15.6857L1.87615 11.4539H1.00923C0.733386 11.4539 0.481626 11.3401 0.297733 11.1584V11.1562L0.295543 11.1584C0.113839 10.9745 0 10.7228 0 10.4447V9.52744C0 9.24941 0.113839 8.99765 0.295543 8.81376C0.308679 8.80062 0.324003 8.7853 0.339328 8.77435C0.516654 8.61454 0.750899 8.51822 1.00704 8.51822H1.14058C1.1778 8.11978 1.33104 7.74324 1.56747 7.41485C1.80829 7.07771 2.14105 6.79093 2.51978 6.5939C2.9007 6.39468 3.33198 6.28303 3.76763 6.29617C4.15074 6.3093 4.53167 6.41438 4.88413 6.63768C5.03737 6.41438 5.22783 6.21517 5.44676 6.05098C5.87584 5.72916 6.4122 5.53651 6.99234 5.53651C7.47396 5.53651 7.92494 5.66786 8.30805 5.89554C8.60798 6.07287 8.8663 6.31149 9.06771 6.59171C9.6785 6.63987 10.2302 6.90039 10.6439 7.29883C10.9833 7.62721 11.2285 8.04754 11.3357 8.51603H26.0582V3.08679C25.7385 1.51712 24.8322 1.09023 23.6216 1.26317C24.1667 2.21329 24.0966 3.17873 23.3238 4.16388C23.4224 4.32369 23.4136 4.49883 23.3063 4.68491L23.0655 4.96294C22.9692 5.06145 22.8488 5.07021 22.6934 4.94543L18.9936 1.20844C18.8929 1.08804 18.9126 0.982954 19.0308 0.891007C19.2935 0.569193 19.3263 0.514463 19.7927 0.593275C20.8303 -0.0810021 21.8177 -0.201409 22.7481 0.332759C25.084 -0.626116 27.0718 0.57795 27.341 3.02987V8.5817C27.479 8.63205 27.6016 8.71305 27.7023 8.81376C27.884 8.99546 27.9978 9.24941 27.9978 9.52744V10.4447C27.9978 10.7228 27.884 10.9745 27.7023 11.1584C27.5206 11.3401 27.2666 11.4539 26.9908 11.4539H26.0538ZM19.5715 3.08679L19.5584 3.06927C19.4905 2.97076 19.3548 2.94886 19.2585 3.01673L17.5947 4.18139C17.4962 4.24926 17.4743 4.38499 17.5421 4.48131L17.5553 4.49883C17.6231 4.59734 17.7589 4.61923 17.8552 4.55137L19.519 3.38671C19.6175 3.31884 19.6394 3.18311 19.5715 3.08679ZM18.6149 2.12353L18.6017 2.10602C18.5339 2.0075 18.3981 1.98561 18.3018 2.05348L16.638 3.21814C16.5395 3.286 16.5176 3.42173 16.5855 3.51806L16.5986 3.53557C16.6665 3.63409 16.8022 3.65598 16.8985 3.58811L18.5623 2.42345C18.6586 2.35559 18.6827 2.21986 18.6149 2.12353ZM20.526 4.0172L20.5129 3.99969C20.445 3.90117 20.3093 3.87928 20.213 3.94714L18.5492 5.1118C18.4507 5.17967 18.4288 5.3154 18.4966 5.41173L18.5098 5.42924C18.5776 5.52775 18.7134 5.54965 18.8097 5.48178L20.4757 4.31712C20.5698 4.24926 20.5939 4.11571 20.526 4.0172ZM2.2527 8.51822H10.1886C10.1185 8.35621 10.0156 8.21173 9.88866 8.09132C9.62815 7.83956 9.26693 7.68413 8.8663 7.68413C8.805 7.68413 8.87068 7.68194 8.82909 7.68194L8.79187 7.68413C8.58608 7.69288 8.38249 7.58561 8.28178 7.39077C8.16357 7.16528 7.97967 6.97482 7.75418 6.84128C7.53526 6.71212 7.27475 6.6355 6.99672 6.6355C6.65958 6.6355 6.3509 6.74496 6.1079 6.92666C5.86489 7.11055 5.68319 7.36669 5.60438 7.66005C5.57811 7.7717 5.51462 7.87678 5.4183 7.95559C5.18405 8.14605 4.83815 8.11102 4.64769 7.87678C4.37842 7.54621 4.05442 7.40172 3.73698 7.39077C3.49617 7.38202 3.25098 7.44769 3.02987 7.56372C2.80657 7.68194 2.60954 7.8527 2.46286 8.0541C2.35997 8.19859 2.28554 8.35621 2.2527 8.51822ZM1.86083 9.6172C1.77326 9.63909 1.68569 9.6369 1.6025 9.6172H1.09898V10.3528H26.901V9.6172H1.86083ZM3.00797 11.4539L4.04566 15.4099C4.25583 16.2155 4.58858 16.8219 5.06583 17.2159C5.53213 17.6034 6.16044 17.8005 6.97701 17.8005H20.9332C21.7783 17.8005 22.4985 17.5925 23.0371 17.1831C23.5493 16.7934 23.9106 16.2089 24.0769 15.4339L24.9307 11.4539H3.00797Z" fill="#2396EF"/>
</g>
<defs>
<clipPath id="clip0_1_116">
<rect width="28" height="20.8522" fill="white"/>
</clipPath>
</defs>
</svg>
