<svg width="28" height="23" viewBox="0 0 28 23" fill="none" xmlns="http://www.w3.org/2000/svg">
<g clip-path="url(#clip0_1_113)">
<path d="M0.961589 15.349H27.0088V14.2848C27.0088 14.0273 26.9587 13.7881 26.8698 13.5739C26.7741 13.346 26.6328 13.1432 26.4574 12.9678C26.3503 12.8607 26.2295 12.7627 26.0996 12.6761C25.9674 12.5872 25.8262 12.5098 25.6781 12.4437C25.2793 12.3571 24.8828 12.2751 24.4886 12.1976C24.0921 12.1201 23.6934 12.0472 23.2923 11.9788C23.2741 11.9766 23.2604 11.9743 23.2422 11.9697C23.0394 11.9355 22.8457 11.9036 22.6611 11.874C22.4766 11.8444 22.2806 11.8148 22.0755 11.7829H22.071C20.6764 11.6051 19.2865 11.4684 17.8988 11.3773C16.5088 11.2861 15.1257 11.2406 13.7516 11.2383C12.9359 11.2383 12.1224 11.252 11.3089 11.2839C10.5 11.3158 9.68652 11.3613 8.87305 11.4251H8.86849C8.10742 11.4958 7.34863 11.5846 6.58757 11.6872C5.82878 11.7897 5.06771 11.9105 4.30208 12.0449L4.21777 12.0654C4.20182 12.07 4.18587 12.0723 4.1722 12.0723C4.15853 12.0745 4.14486 12.0745 4.13119 12.0745C3.77344 12.1383 3.40658 12.209 3.02832 12.2842C2.66146 12.3571 2.2946 12.4346 1.93001 12.5143C1.83887 12.5645 1.75228 12.6214 1.67025 12.6807C1.58822 12.7422 1.50846 12.8083 1.43783 12.8789C1.28516 13.0316 1.16439 13.207 1.08236 13.403C1.00488 13.5876 0.961589 13.7926 0.961589 14.016V15.349ZM3.23568 0H24.4248C24.7005 0 24.9648 0.0546875 25.2064 0.154948C25.457 0.259766 25.6826 0.412435 25.8717 0.599284C26.0609 0.788411 26.2135 1.014 26.3161 1.26465C26.4163 1.50618 26.471 1.77051 26.471 2.04622V11.7738C26.5872 11.8421 26.7012 11.9173 26.806 11.9993C26.9245 12.0905 27.0361 12.1862 27.1387 12.2887C27.403 12.5531 27.6172 12.8607 27.7607 13.207C27.8975 13.5329 27.9727 13.8952 27.9727 14.2871V15.6748C27.9795 15.6976 27.9863 15.7204 27.9909 15.7432V15.7477C27.9954 15.7773 27.9977 15.8047 27.9977 15.832C27.9977 15.8617 27.9954 15.8913 27.9886 15.9209C27.9841 15.9437 27.9772 15.9665 27.9704 15.9893V22.292C27.9704 22.4242 27.9157 22.5449 27.8291 22.6315C27.7425 22.7181 27.6217 22.7728 27.4896 22.7728H26.4984C26.3867 22.7728 26.2842 22.734 26.2021 22.6702C26.1201 22.6064 26.0586 22.5153 26.0335 22.4105C25.8512 21.8864 25.6667 21.4717 25.4684 21.1481C25.2725 20.8291 25.0628 20.6012 24.8213 20.4395C24.5775 20.2777 24.2858 20.1751 23.9326 20.1136C23.5726 20.0498 23.1533 20.0293 22.6543 20.0316L4.47982 20.0544H4.4707C4.11296 20.0475 3.81901 20.0931 3.57292 20.1888C3.3291 20.2845 3.13086 20.4281 2.9668 20.6126C2.78223 20.8177 2.62728 21.0798 2.486 21.3851C2.34245 21.6973 2.21257 22.0527 2.08268 22.4424C2.05078 22.5426 1.98698 22.6224 1.90723 22.6794C1.83203 22.734 1.74089 22.7659 1.64746 22.7705C1.64063 22.7728 1.63379 22.7728 1.62695 22.7728H0.480794C0.348633 22.7728 0.227865 22.7181 0.141276 22.6315C0.0546875 22.5449 0 22.4242 0 22.292V14.0182C0 13.6605 0.0683594 13.3324 0.191406 13.0361C0.323568 12.7217 0.517253 12.4414 0.758789 12.1999C0.827148 12.1315 0.902344 12.0632 0.982096 11.9993C1.05046 11.9447 1.11882 11.8923 1.19173 11.8444V2.02572C1.19173 1.75 1.24642 1.48796 1.34668 1.25098C1.4515 1.0026 1.60417 0.779297 1.79329 0.592448C1.98242 0.405599 2.20801 0.257487 2.45638 0.154948C2.69792 0.0546875 2.95996 0 3.23568 0ZM24.4248 0.961589H3.23568C3.08757 0.961589 2.94629 0.991211 2.81641 1.04362C2.68197 1.09831 2.56348 1.17806 2.46322 1.27604C2.36523 1.37174 2.28548 1.49023 2.23079 1.61784C2.18066 1.74316 2.15332 1.87988 2.15332 2.02572V11.3818C2.22168 11.359 2.29004 11.3408 2.36068 11.3226C2.47233 11.293 2.58398 11.2679 2.69564 11.2497C2.85059 11.2223 3.01921 11.1927 3.2015 11.1608C3.33822 11.138 3.48405 11.113 3.63444 11.0902V8.70215C3.63444 8.34212 3.70736 7.99805 3.83724 7.68359C3.97396 7.35547 4.1722 7.06152 4.41829 6.81543C4.66439 6.56934 4.95833 6.37109 5.28646 6.23438C5.60091 6.10449 5.94499 6.03158 6.30501 6.03158H10.8213C11.1813 6.03158 11.5254 6.10449 11.8398 6.23438C12.168 6.37109 12.4619 6.56934 12.708 6.81543C12.9541 7.06152 13.1523 7.35547 13.2891 7.68359C13.4189 7.99805 13.4919 8.34212 13.4919 8.70215V10.2266C13.6514 10.2243 13.8109 10.2243 13.9727 10.2243V8.70215C13.9727 8.34212 14.0456 7.99805 14.1755 7.68359C14.3122 7.35547 14.5104 7.06152 14.7565 6.81543C15.0026 6.56934 15.2965 6.37109 15.6247 6.23438C15.9391 6.10449 16.2832 6.03158 16.6432 6.03158H21.1595C21.5195 6.03158 21.8636 6.10449 22.1781 6.23438C22.5062 6.37109 22.8001 6.56934 23.0462 6.81543C23.2923 7.06152 23.4906 7.35547 23.6273 7.68359C23.7572 7.99805 23.8301 8.34212 23.8301 8.70215V11.0583C24.001 11.0833 24.1833 11.113 24.3792 11.1449C24.5957 11.179 24.8031 11.2132 25.0036 11.2474C25.1061 11.2656 25.2109 11.2861 25.3158 11.3112C25.3818 11.3271 25.4456 11.3431 25.5072 11.3613V2.04622C25.5072 1.90039 25.4775 1.76139 25.4251 1.63379C25.3704 1.50163 25.2884 1.38314 25.1882 1.2806C25.0879 1.18034 24.9671 1.09831 24.8372 1.04362C24.7096 0.991211 24.5706 0.961589 24.4248 0.961589ZM9.84603 10.3815C10.304 10.3473 10.7643 10.3177 11.2314 10.2949C11.6621 10.2721 12.0973 10.2562 12.5326 10.2448V8.70215C12.5326 8.472 12.487 8.25098 12.4027 8.05046C12.3161 7.84082 12.1885 7.65397 12.029 7.49447C11.8717 7.33724 11.6826 7.20964 11.473 7.12077C11.2725 7.03646 11.0514 6.99089 10.8213 6.99089H6.30501C6.07487 6.99089 5.85384 7.03646 5.65332 7.12077C5.44369 7.20736 5.25684 7.33496 5.09733 7.49447C4.9401 7.65169 4.8125 7.84082 4.72363 8.05046C4.63932 8.25098 4.59375 8.472 4.59375 8.70215V10.9375C4.96289 10.8828 5.33659 10.8327 5.7194 10.7826C6.13184 10.7301 6.54199 10.6823 6.94759 10.6367C7.10482 10.6185 7.27344 10.598 7.44889 10.5798C7.61296 10.5615 7.78385 10.5456 7.96615 10.5273C8.27604 10.4977 8.58366 10.4704 8.88672 10.4453C9.19889 10.4248 9.5179 10.402 9.84603 10.3815ZM14.9342 10.2311C15.21 10.2357 15.4857 10.2425 15.7614 10.2516C16.0667 10.2607 16.3721 10.2744 16.6751 10.2881H16.6774C17.1764 10.3063 17.6641 10.3291 18.138 10.3564C18.612 10.3838 19.0745 10.418 19.5166 10.4567C20.1592 10.5137 20.7813 10.582 21.3714 10.6618C21.9001 10.7347 22.4014 10.8167 22.8708 10.9079V8.70215C22.8708 8.472 22.8252 8.25098 22.7409 8.05046C22.6543 7.84082 22.5267 7.65397 22.3672 7.49447C22.21 7.33724 22.0208 7.20964 21.8112 7.12077C21.6107 7.03646 21.3897 6.99089 21.1595 6.99089H16.6455C16.4154 6.99089 16.1943 7.03646 15.9938 7.12077C15.7842 7.20736 15.5973 7.33496 15.4378 7.49447C15.2806 7.65169 15.153 7.84082 15.0641 8.05046C14.9798 8.25098 14.9342 8.472 14.9342 8.70215V10.2311ZM27.0111 16.3128H0.961589V21.8112H1.28743C1.41504 21.4512 1.5472 21.1162 1.69531 20.8177C1.85482 20.4987 2.03483 20.2161 2.25358 19.9723C2.51335 19.6807 2.81868 19.4551 3.18555 19.3047C3.55241 19.1566 3.98079 19.0814 4.49577 19.0928L22.6543 19.07C23.2399 19.07 23.7412 19.0973 24.1787 19.1816C24.623 19.2659 25.0059 19.4095 25.3499 19.6374C25.6689 19.8493 25.9424 20.1296 26.1885 20.4964C26.4232 20.8473 26.6328 21.278 26.8333 21.8089H27.0065V16.3128H27.0111Z" fill="#2396EF"/>
</g>
<defs>
<clipPath id="clip0_1_113">
<rect width="28" height="22.7728" fill="white"/>
</clipPath>
</defs>
</svg>
