<svg width="50" height="50" viewBox="0 0 50 50" fill="none" xmlns="http://www.w3.org/2000/svg">
<rect width="50" height="50" rx="12" fill="#3E7EF7"/>
<path d="M15.2261 16.5503V37.2729C15.2261 37.2876 15.2261 37.3022 15.2236 37.3145H20.8413V35.1489H29.8086V37.3145H34.8843C34.8843 37.3022 34.8818 37.2925 34.8818 37.2803V16.5503H33.2778V19.0991H28.0508V19.1016V22.0996C28.0508 22.2217 27.9531 22.3193 27.8311 22.3193H26.7959V23.6743H25.8413V22.3193H24.7524V23.6743H23.7979V22.3193H22.7603C22.6382 22.3193 22.5405 22.2217 22.5405 22.0996V19.1016V19.0991H17.3696V16.5503H15.2261ZM20.6973 25.9326H30.0186C30.1943 25.9326 30.3555 26.0059 30.4727 26.1206C30.5898 26.2378 30.6606 26.3989 30.6606 26.5747V26.8652H32.0327C32.3501 26.8652 32.6382 26.9946 32.8457 27.2021C32.853 27.2095 32.8628 27.2192 32.8701 27.229C33.0654 27.4365 33.1851 27.7124 33.1851 28.0151V29.3604C33.1851 29.7217 33.0361 30.0513 32.7993 30.2905C32.5601 30.5298 32.2329 30.6763 31.8691 30.6763H30.3799C29.8794 32.1753 28.7637 33.208 27.4429 33.7451C26.7617 34.0234 26.022 34.165 25.2822 34.1699C24.5425 34.1748 23.8052 34.0381 23.1289 33.7573C21.3955 33.042 20.0527 31.4014 20.0527 28.7671V26.5747C20.0527 26.3989 20.126 26.2378 20.2407 26.1206C20.3579 26.0059 20.519 25.9326 20.6973 25.9326ZM32.0327 27.6318H30.6851V29.917H31.8691C32.0205 29.917 32.1597 29.8535 32.2598 29.7534C32.3599 29.6533 32.4233 29.5142 32.4233 29.3628V28.0176C32.4233 27.9175 32.3867 27.8271 32.3232 27.7588C32.3184 27.7539 32.3135 27.749 32.3086 27.7441C32.2354 27.6758 32.1401 27.6318 32.0327 27.6318ZM29.8989 26.6968H20.8145V28.772C20.8145 31.0474 21.9497 32.4536 23.417 33.0591C24.0005 33.3008 24.6401 33.418 25.2798 33.4131C25.9194 33.4106 26.5615 33.2837 27.1572 33.042C28.6904 32.4194 29.9014 31.0034 29.9014 28.8672V26.6968H29.8989ZM14.4082 37.3169C14.4058 37.3022 14.4058 37.29 14.4058 37.2754V16.5503H11.3809C11.1709 16.5503 11 16.3794 11 16.1694V10.3809C11 10.1709 11.1709 10 11.3809 10H38.8247C39.0347 10 39.2056 10.1709 39.2056 10.3809V16.1694C39.2056 16.3794 39.0347 16.5503 38.8247 16.5503H35.707V37.2827C35.707 37.2949 35.707 37.3047 35.7046 37.3169H38.8247V40H11.3809V37.3169H14.4082ZM22.2915 11.5625H28.4048C28.5122 11.5625 28.6001 11.6577 28.6001 11.7773V14.7119C28.6001 14.8315 28.5122 14.9268 28.4048 14.9268H22.2915C22.1841 14.9268 22.0962 14.8315 22.0962 14.7119V11.7773C22.0962 11.6577 22.1841 11.5625 22.2915 11.5625ZM27.6113 19.3213H22.98V21.8799H27.6138V19.3213H27.6113ZM38.3853 10.8203H11.8203V15.7275H38.3853V10.8203Z" fill="white" fill-opacity="0.81"/>
</svg>
