<svg width="50" height="50" viewBox="0 0 50 50" fill="none" xmlns="http://www.w3.org/2000/svg">
<rect width="50" height="50" rx="12" fill="#3E7EF7"/>
<g clip-path="url(#clip0_1_198)">
<path d="M24.3457 20.8984L22.6611 19.2139L22.5195 21.3647L24.3457 23.1909V20.8984ZM17.854 18.5693L14.729 18.6865C14.3652 18.6987 14.0601 18.4155 14.0479 18.0518C14.0356 17.688 14.3188 17.3828 14.6826 17.3706L16.582 17.2998L14.4312 15.1489C14.1724 14.8901 14.1724 14.4727 14.4312 14.2139C14.6899 13.9551 15.1074 13.9551 15.3662 14.2139L17.4829 16.3306L17.5122 14.5508C17.5171 14.187 17.8174 13.8965 18.1812 13.9014C18.5449 13.9062 18.8354 14.2065 18.8306 14.5703L18.7817 17.627L21.5234 20.3687L21.6797 17.981C21.6968 17.6904 21.9482 17.4683 22.2388 17.4878C22.373 17.4951 22.4902 17.5537 22.5781 17.6416L24.3408 19.4043V15.083L22.1436 12.9541C21.8823 12.7002 21.8774 12.2827 22.1313 12.0215C22.3853 11.7603 22.8027 11.7554 23.064 12.0093L24.3408 13.2471V10.6616C24.3408 10.2954 24.6362 10 25.0024 10C25.3687 10 25.6641 10.2954 25.6641 10.6616V13.291L27.0581 11.9995C27.3242 11.7505 27.7417 11.7651 27.9907 12.0337C28.2397 12.2998 28.2251 12.7173 27.9565 12.9663L25.6641 15.0928V19.2163L27.4976 17.6099C27.7173 17.417 28.0493 17.4414 28.2422 17.6587C28.3301 17.7588 28.3716 17.8833 28.3716 18.0054H28.374V20.6714L31.5649 17.4805L31.5161 14.4238C31.5112 14.0601 31.8018 13.7598 32.1655 13.7549C32.5293 13.75 32.8296 14.0405 32.8345 14.4043L32.8638 16.1841L34.6924 14.3555C34.9512 14.0967 35.3687 14.0967 35.6274 14.3555C35.8862 14.6143 35.8862 15.0317 35.6274 15.2905L33.7671 17.1509L35.6665 17.2217C36.0303 17.2339 36.3159 17.5391 36.3013 17.9028C36.2891 18.2666 35.9839 18.5522 35.6201 18.5376L32.4951 18.4204L29.6069 21.3135L31.8726 21.4624C32.1631 21.4795 32.3853 21.731 32.3657 22.0215C32.3584 22.1558 32.2998 22.2729 32.2119 22.3608L30.4346 24.1382H34.9121L37.041 21.9409C37.2949 21.6797 37.7124 21.6748 37.9736 21.9287C38.2349 22.1826 38.2397 22.6001 37.9858 22.8613L36.748 24.1382H39.3311C39.6973 24.1382 39.9927 24.4336 39.9927 24.7998C39.9927 25.166 39.6973 25.4614 39.3311 25.4614H36.709L38.0005 26.8555C38.2495 27.1216 38.2349 27.5391 37.9663 27.7881C37.7002 28.0371 37.2827 28.0225 37.0337 27.7539L34.9072 25.4614H30.6519L32.2461 27.2803C32.439 27.5 32.4146 27.832 32.1973 28.0249C32.0972 28.1128 31.9727 28.1543 31.8506 28.1543V28.1567H29.314L32.5171 31.3623L35.5737 31.3135C35.9375 31.3086 36.2378 31.5991 36.2427 31.9629C36.2476 32.3267 35.957 32.627 35.5933 32.6318L33.8135 32.6611L35.6421 34.4897C35.9009 34.7485 35.9009 35.166 35.6421 35.4248C35.3833 35.6836 34.9658 35.6836 34.707 35.4248L32.8467 33.5645L32.7759 35.4639C32.7637 35.8276 32.4585 36.1133 32.0947 36.0986C31.731 36.0864 31.4453 35.7812 31.46 35.4175L31.5771 32.2925L28.5498 29.2651L28.3936 31.6528C28.3765 31.9434 28.125 32.1655 27.8345 32.146C27.7002 32.1387 27.583 32.0801 27.4951 31.9922L25.6714 30.1685V34.4946L27.9639 36.6211C28.23 36.8701 28.2446 37.2876 27.998 37.5537C27.749 37.8198 27.3315 37.8345 27.0654 37.5879L25.6714 36.2964V39.3359C25.6714 39.7021 25.376 39.9976 25.0098 39.9976C24.6436 39.9976 24.3481 39.7021 24.3481 39.3359V36.3428L23.0713 37.5806C22.8101 37.8345 22.3926 37.8296 22.1387 37.5684C21.8848 37.3071 21.8896 36.8896 22.1509 36.6357L24.3481 34.5068V30.4736L22.5757 32.0264C22.356 32.2192 22.0239 32.1948 21.8311 31.9775C21.7432 31.8774 21.7017 31.7529 21.7017 31.6309H21.6992V29.2261L18.7744 32.146L18.8916 35.271C18.9038 35.6348 18.6206 35.9399 18.2568 35.9521C17.8931 35.9644 17.5879 35.6812 17.5757 35.3174L17.5049 33.418L15.354 35.5688C15.0952 35.8276 14.6777 35.8276 14.4189 35.5688C14.1602 35.3101 14.1602 34.8926 14.4189 34.6338L16.5356 32.5171L14.7559 32.4878C14.3921 32.4829 14.1016 32.1826 14.1064 31.8188C14.1113 31.4551 14.4116 31.1646 14.7754 31.1694L17.832 31.2183L20.7129 28.3374L18.2031 28.1714C17.9126 28.1543 17.6904 27.9028 17.71 27.6123C17.7173 27.478 17.7759 27.3608 17.8638 27.2729L19.6704 25.4639H15.5029L13.3765 27.7563C13.1274 28.0225 12.71 28.0371 12.4438 27.7905C12.1777 27.5415 12.1631 27.124 12.4097 26.8579L13.7012 25.4639H10.6616C10.2954 25.4639 10 25.1685 10 24.8022C10 24.436 10.2954 24.1406 10.6616 24.1406H13.6548L12.417 22.8638C12.1631 22.6025 12.168 22.1851 12.4292 21.9312C12.6904 21.6772 13.1079 21.6821 13.3618 21.9434L15.4907 24.1406H19.3945L17.8296 22.3535C17.6367 22.1338 17.6611 21.8018 17.8784 21.6089C17.9785 21.521 18.103 21.4795 18.2251 21.4795V21.4771H20.7593L17.854 18.5693ZM21.8188 22.5366H19.3896L20.7959 24.1406H23.4229L21.8188 22.5366ZM27.5562 28.2715L25.6689 26.3843V28.6768L27.4146 30.4224L27.5562 28.2715ZM26.6187 25.4639L28.2544 27.0996H30.6836L29.2505 25.4639H26.6187ZM21.1646 25.4639L19.4336 27.1948L21.7065 27.3438L23.5889 25.4614H21.1646V25.4639ZM26.7798 24.1406H28.9404L30.6421 22.439L28.6133 22.3047L26.7798 24.1406ZM22.7563 28.1641V30.4614L24.3457 29.0674V26.5747L22.7563 28.1641ZM25.6689 23.3813L27.3193 21.731V19.1724L25.6689 20.6201V23.3813Z" fill="white" fill-opacity="0.81"/>
</g>
<defs>
<clipPath id="clip0_1_198">
<rect width="30" height="30" fill="white" transform="translate(10 10)"/>
</clipPath>
</defs>
</svg>
