<svg width="24" height="24" viewBox="0 0 24 24" fill="none" xmlns="http://www.w3.org/2000/svg">
<path d="M4.15141 10.2694C4.46955 10.0515 4.90616 10.1294 5.12447 10.4517C7.5436 13.991 11.9658 17.9784 14.7804 19.1576C15.9196 19.6893 16.7676 19.7222 17.3974 19.2675C17.8881 18.9668 19.2856 17.5697 19.2604 16.8425C19.252 16.757 19.155 16.5963 18.9899 16.4253C18.4525 15.871 16.6501 14.4974 16.2732 14.3546C15.9727 14.2935 15.6667 14.472 15.1956 14.7699L14.953 14.9221C14.6218 15.1222 14.1908 15.0132 13.993 14.6816C13.7934 14.3471 13.9007 13.9139 14.2319 13.7138L14.4502 13.5776C14.9726 13.2469 15.6891 12.7968 16.5988 12.9857C17.3125 13.1341 19.5608 14.9972 19.99 15.4407C20.394 15.856 20.6188 16.2994 20.6571 16.7598C20.7177 18.4895 18.4152 20.2991 18.1521 20.4513C17.6492 20.8158 17.0606 21 16.3991 21C15.7404 21 15.009 20.8177 14.2169 20.4475C11.17 19.1716 6.56214 15.0405 3.97229 11.2494C3.75305 10.9299 3.83328 10.4912 4.15141 10.2694ZM6.17861 2.20325C6.65907 2.24271 7.09942 2.46914 7.51365 2.87596C7.95307 3.30721 9.80309 5.57246 9.95143 6.29215C10.111 7.06352 9.76671 7.66577 9.51575 8.10548C9.26852 8.53861 9.18269 8.7237 9.26758 8.95765C9.89266 10.4966 10.8573 11.7528 12.1252 12.6651C12.4396 12.8925 12.5124 13.3312 12.2875 13.6488C12.1513 13.8405 11.9367 13.9438 11.7184 13.9438C11.5776 13.9438 11.4348 13.9015 11.3117 13.8123C9.82548 12.7421 8.69849 11.2802 7.96146 9.46406C7.63773 8.56679 8.0221 7.89408 8.30292 7.4027C8.51377 7.03439 8.63038 6.81454 8.58094 6.57965C8.45033 6.24048 7.08543 4.42433 6.53592 3.88503C6.36613 3.71686 6.20659 3.6182 6.08811 3.60881C5.45931 3.57968 4.05429 4.92417 3.74456 5.44092C3.26409 6.10612 3.29768 6.95923 3.81359 8.10078C3.97313 8.45499 3.81826 8.87215 3.46654 9.03375C3.11575 9.19535 2.69966 9.03845 2.54012 8.68424C1.80683 7.06164 1.81989 5.70682 2.58117 4.66016C2.74164 4.38769 4.51703 2.09332 6.17861 2.20325ZM13.8651 5.34265C15.8057 5.72316 17.304 7.23207 17.6827 9.18633C17.7564 9.56779 17.5092 9.93891 17.1295 10.0131C17.0847 10.0216 17.039 10.0253 16.9942 10.0253C16.6668 10.0253 16.3738 9.79234 16.3085 9.45598C16.0398 8.06733 14.9753 6.99625 13.5974 6.7266C13.2186 6.65237 12.9704 6.28125 13.0441 5.8998C13.1188 5.51834 13.491 5.27782 13.8651 5.34265ZM13.809 2.00566C17.6135 2.43033 20.5691 5.40306 20.9954 9.23359C21.0393 9.62068 20.7622 9.97019 20.3788 10.0125C20.3517 10.0153 20.3256 10.0172 20.2995 10.0172C19.9487 10.0172 19.6455 9.75128 19.6053 9.39143C19.2508 6.21953 16.8047 3.75791 13.6541 3.40558C13.2697 3.36236 12.9936 3.01473 13.0356 2.62764C13.0794 2.24055 13.4255 1.95586 13.809 2.00566Z" fill="#6C7894"/>
</svg>
