<svg width="24" height="24" viewBox="0 0 24 24" fill="none" xmlns="http://www.w3.org/2000/svg">
<path d="M15.7472 1.99982C19.6082 1.99982 22.0002 4.39282 22.0002 8.25582V15.7558C22.0002 19.6078 19.6082 21.9998 15.7472 21.9998H8.2442C4.3922 21.9998 2.0002 19.6078 2.0012 15.7528C2.0012 15.3308 2.3432 14.9878 2.7662 14.9878C3.1882 14.9878 3.5312 15.3308 3.5312 15.7528C3.5312 18.7868 5.2022 20.4668 8.2542 20.4668H15.7472C18.7902 20.4668 20.4702 18.7958 20.4702 15.7528V8.25282C20.4702 5.20982 18.8002 3.52982 15.7472 3.52982H8.2532C5.2102 3.52982 3.5302 5.20982 3.5302 8.25282V10.5838C3.5302 11.0018 3.1912 11.3398 2.7742 11.3398H2.7632C2.3412 11.3398 1.9992 10.9968 2.0002 10.5748V8.25282C2.0002 4.39282 4.4102 1.99982 8.2542 1.99982H15.7472ZM11.9947 10.6257C12.4087 10.6257 12.7447 10.9617 12.7447 11.3757V15.7957C12.7447 16.2097 12.4087 16.5457 11.9947 16.5457C11.5807 16.5457 11.2447 16.2097 11.2447 15.7957V11.3757C11.2447 10.9617 11.5807 10.6257 11.9947 10.6257ZM12.005 7.45392C12.419 7.45392 12.755 7.78992 12.755 8.20392C12.755 8.61792 12.419 8.95392 12.005 8.95392H11.995C11.581 8.95392 11.25 8.61792 11.25 8.20392C11.25 7.78992 11.591 7.45392 12.005 7.45392Z" fill="#6C7894"/>
</svg>
