<svg width="48" height="48" viewBox="0 0 48 48" fill="none" xmlns="http://www.w3.org/2000/svg">
<rect width="48" height="48" rx="12" fill="#2892F0"/>
<g clip-path="url(#clip0_237_5)">
<path fill-rule="evenodd" clip-rule="evenodd" d="M20.2032 10.4855C20.9245 13.5776 22.4693 16.3439 24.0893 18.8481C24.3305 18.4836 24.5853 18.1099 24.8469 17.7293C26.3008 15.6011 27.9571 13.1743 28.601 10.3784C28.6602 10.1164 28.9195 9.95459 29.1812 10.0138C29.3678 10.0571 29.5043 10.2007 29.5452 10.3761C30.1937 13.1584 31.8477 15.5851 33.3016 17.7157C34.7464 19.8348 36.0023 21.6782 36.0023 23.4305C36.0023 26.6821 34.198 28.7671 31.891 29.6808C31.0878 29.9998 30.2232 30.173 29.3541 30.2026C28.1619 40.9852 11 40.5864 11 29.0018C11 24.2622 18.3512 18.5132 20.2032 10.4855ZM24.6695 19.73C27.0562 23.3052 29.4178 26.3289 29.4178 29.0018C29.4178 29.0793 29.4133 29.1522 29.4133 29.2274C30.1413 29.1909 30.8626 29.0428 31.5315 28.7762C33.495 27.9992 35.0285 26.2173 35.0285 23.4305C35.0285 21.9767 33.8522 20.2495 32.4985 18.2625C31.2721 16.4624 29.907 14.4595 29.072 12.174C28.2393 14.4731 26.8719 16.4761 25.6432 18.2739C25.3042 18.7752 24.9721 19.2606 24.6695 19.73ZM14.5971 27.6551C14.5516 27.1401 14.9293 26.6867 15.4435 26.6388C15.9577 26.591 16.4104 26.9715 16.4582 27.4865C16.5743 28.7306 16.845 29.8745 17.366 30.8634C17.8689 31.8182 18.6129 32.6385 19.6913 33.272C20.1372 33.5317 20.2851 34.106 20.0258 34.5503C19.7641 34.9969 19.193 35.145 18.7494 34.8853C17.3456 34.0604 16.3718 32.9894 15.7142 31.7362C15.0681 30.5148 14.7359 29.134 14.5971 27.6551Z" fill="white"/>
</g>
<defs>
<clipPath id="clip0_237_5">
<rect width="25" height="28" fill="white" transform="translate(11 10)"/>
</clipPath>
</defs>
</svg>
