<svg width="24" height="24" viewBox="0 0 24 24" fill="none" xmlns="http://www.w3.org/2000/svg">
<path d="M15.0594 2C18.7106 2 21 4.27265 21 7.94063V10.1464L20.9934 10.2451C20.9452 10.5999 20.6411 10.8734 20.2731 10.8734H20.2647L20.1499 10.8642C19.9991 10.8398 19.8588 10.7677 19.7506 10.657C19.6154 10.5186 19.5417 10.3315 19.5462 10.1381V7.94063C19.5462 5.04969 17.9503 3.45383 15.0594 3.45383H7.94063C5.04134 3.45383 3.45383 5.04969 3.45383 7.94063V15.0677C3.45383 17.9587 5.04969 19.5462 7.94063 19.5462H15.0594C17.9587 19.5462 19.5462 17.9503 19.5462 15.0677C19.5462 14.6663 19.8716 14.3408 20.2731 14.3408C20.6746 14.3408 21 14.6663 21 15.0677C21 18.7274 18.7274 21 15.0677 21H7.94063C4.27265 21 2 18.7274 2 15.0677V7.94063C2 4.27265 4.27265 2 7.94063 2H15.0594ZM7.46438 9.17722C7.65721 9.18376 7.83953 9.26668 7.97117 9.40773C8.10282 9.54878 8.17299 9.73638 8.16623 9.9292V16.0035C8.15238 16.405 7.81571 16.7192 7.41425 16.7054C7.01278 16.6915 6.69856 16.3548 6.7124 15.9534V9.87071L6.72535 9.75704C6.7545 9.60803 6.83036 9.47102 6.94341 9.36676C7.08472 9.23644 7.27236 9.16817 7.46438 9.17722ZM11.5334 6.32806C11.9349 6.32806 12.2603 6.65351 12.2603 7.05497V15.9617C12.2603 16.3632 11.9349 16.6887 11.5334 16.6887C11.132 16.6887 10.8065 16.3632 10.8065 15.9617V7.05497C10.8065 6.65351 11.132 6.32806 11.5334 6.32806ZM15.5607 12.3857C15.9621 12.3857 16.2876 12.7111 16.2876 13.1126V15.9534C16.2876 16.3548 15.9621 16.6803 15.5607 16.6803C15.1592 16.6803 14.8338 16.3548 14.8338 15.9534V13.1126C14.8338 12.7111 15.1592 12.3857 15.5607 12.3857Z" fill="#6C7894"/>
</svg>
