<svg width="28" height="24" viewBox="0 0 28 24" fill="none" xmlns="http://www.w3.org/2000/svg">
<g clip-path="url(#clip0_1_107)">
<path d="M5.84701 4.14708C5.75586 4.23303 5.63509 4.276 5.5166 4.276C5.39583 4.276 5.27734 4.23303 5.1862 4.14708C5.09505 4.06112 5.04948 3.94724 5.04948 3.8355C5.04948 3.72161 5.09505 3.60987 5.1862 3.52392C5.35254 3.36706 5.40039 3.22524 5.38216 3.08986C5.36393 2.9416 5.27506 2.78259 5.17708 2.61283C5.00846 2.31415 4.82617 1.99612 4.76921 1.60934C4.70996 1.21826 4.77832 0.769155 5.11328 0.223359L5.11556 0.214764C5.17936 0.11377 5.2819 0.0450081 5.39356 0.0149248C5.50749 -0.0151585 5.63509 -0.00226564 5.74675 0.0579009C5.8584 0.118067 5.93359 0.216912 5.9655 0.324353C5.9974 0.431793 5.98372 0.552126 5.91992 0.657417C5.71484 0.99478 5.67611 1.27412 5.71484 1.51909C5.75586 1.7662 5.88119 1.98753 5.99967 2.19381C6.17513 2.50109 6.33691 2.78688 6.35742 3.10276C6.38021 3.42723 6.25488 3.76244 5.84701 4.14708ZM3.21061 9.18817H24.7461C24.8327 9.18817 24.917 9.20536 24.9945 9.23545C25.0697 9.26553 25.1357 9.30636 25.195 9.35793C25.1995 9.36008 25.2041 9.36437 25.2087 9.36867C25.3271 9.48041 25.4001 9.63297 25.4001 9.80273V11.1715H27.5329C27.6628 11.1715 27.779 11.2209 27.8633 11.3004C27.9476 11.38 28 11.4917 28 11.612C28 11.7345 27.9476 11.8441 27.8633 11.9236L27.8564 11.93C27.7721 12.0053 27.6582 12.0525 27.5329 12.0525H25.4001V21.099C25.4001 21.4901 25.3158 21.864 25.1654 22.2056C25.0081 22.5602 24.7803 22.8804 24.4977 23.1468C24.2152 23.4133 23.8757 23.6303 23.4997 23.7764C23.1374 23.9182 22.7409 23.9977 22.3262 23.9977H5.63509C5.22038 23.9977 4.82389 23.9182 4.46159 23.7764C4.08561 23.6281 3.74609 23.4133 3.46354 23.1447C3.18099 22.8782 2.95085 22.558 2.79362 22.2035C2.64323 21.8618 2.55892 21.4879 2.55892 21.0968V12.0568H0.469401C0.339518 12.0568 0.223307 12.0074 0.138997 11.9279C0.0524089 11.8462 0 11.7367 0 11.6142C0 11.4917 0.0524089 11.3821 0.136719 11.3026C0.221029 11.2231 0.339518 11.1737 0.467122 11.1737H2.55892V9.80488C2.55892 9.72322 2.57715 9.64372 2.60905 9.57066C2.64323 9.49545 2.69108 9.42669 2.75033 9.37082C2.86882 9.25908 3.03288 9.18817 3.21061 9.18817ZM24.4613 10.0735H3.49772V21.1011C3.49772 21.374 3.55469 21.6319 3.65951 21.8704C3.76888 22.1175 3.92839 22.3389 4.12663 22.5258C4.32487 22.7127 4.55957 22.8632 4.82161 22.9663C5.07227 23.0652 5.34798 23.1189 5.63737 23.1189H22.3285C22.6156 23.1189 22.8913 23.0652 23.1419 22.9663C23.4017 22.8632 23.6387 22.7127 23.8369 22.528C24.0352 22.341 24.1947 22.1197 24.3018 21.8726C24.4066 21.6362 24.4635 21.3762 24.4635 21.1054V10.0735H24.4613ZM4.57096 11.5712C4.57096 11.4487 4.62337 11.3391 4.70768 11.2596C4.79199 11.1801 4.91048 11.1307 5.03809 11.1307C5.16797 11.1307 5.28418 11.1801 5.36849 11.2596C5.4528 11.3391 5.50521 11.4509 5.50521 11.5712V17.3923C5.50521 17.5148 5.4528 17.6244 5.36849 17.7039C5.28418 17.7834 5.16569 17.8328 5.03809 17.8328C4.9082 17.8328 4.79199 17.7834 4.70768 17.7039L4.70085 17.6974C4.62109 17.6179 4.57096 17.5105 4.57096 17.3923V11.5712ZM9.18294 5.46644C8.3763 5.57603 7.65169 5.7157 7.00911 5.88116C6.36426 6.04877 5.79688 6.24431 5.30924 6.46779C4.96745 6.62465 4.66439 6.7944 4.40234 6.97705C4.21777 7.10383 4.05371 7.23921 3.90788 7.37888H24.0579C23.9235 7.24565 23.7686 7.11887 23.5954 6.99854C23.3424 6.82449 23.0485 6.66333 22.7158 6.51721C22.2419 6.30662 21.6904 6.12613 21.0729 5.96711C20.4508 5.8081 19.7627 5.67703 19.0199 5.56744C18.6826 5.51801 18.3408 5.47289 17.9967 5.43206H17.9922C17.6527 5.39123 17.3109 5.35685 16.9645 5.32462C16.625 5.29454 16.2809 5.2666 15.93 5.24512C15.5837 5.22363 15.2396 5.20644 14.8978 5.19354C14.7679 5.18925 14.654 5.13553 14.5719 5.05387C14.4899 4.97222 14.4421 4.86048 14.4466 4.738V4.73585C14.4489 4.66494 14.4694 4.59833 14.5036 4.54031C14.5378 4.48014 14.5879 4.43072 14.6471 4.38989C14.7201 4.33832 14.7884 4.2803 14.8477 4.21369C14.9069 4.14923 14.957 4.07617 14.998 4.00096C15.0391 3.92575 15.071 3.84624 15.0915 3.75814C15.112 3.67434 15.1234 3.58839 15.1234 3.49814C15.1234 3.34772 15.0915 3.2059 15.0345 3.07697C14.9753 2.94375 14.8887 2.82126 14.7816 2.72027C14.6745 2.61928 14.5446 2.53547 14.4033 2.48175C14.2666 2.42803 14.1162 2.39795 13.9567 2.39795C13.7972 2.39795 13.6468 2.42803 13.5101 2.48175C13.3665 2.53762 13.2389 2.61928 13.1318 2.72242C13.0247 2.82341 12.9359 2.94589 12.8789 3.07912C12.8219 3.20805 12.79 3.34987 12.79 3.50029C12.79 3.58839 12.8014 3.67434 12.8197 3.75599C12.8402 3.8398 12.8721 3.92145 12.9108 3.99451C12.9518 4.06972 13.002 4.14278 13.0589 4.20724C13.1182 4.27386 13.1842 4.33402 13.2572 4.38344C13.3597 4.4565 13.4235 4.5618 13.4395 4.67353C13.4554 4.78527 13.4281 4.90346 13.3506 5.00015C13.305 5.05602 13.2503 5.099 13.1888 5.12908C13.1296 5.15701 13.0635 5.1742 12.9974 5.17635H12.9837H12.9746C12.6624 5.1828 12.3434 5.19354 12.0221 5.20859C11.7054 5.22363 11.3841 5.24297 11.0537 5.26875C10.7347 5.29239 10.418 5.32032 10.1081 5.3547C9.7959 5.38694 9.48828 5.42347 9.18294 5.46644ZM4.90137 5.67273C5.43457 5.42991 6.04753 5.21718 6.74251 5.03668C7.43294 4.85618 8.20313 4.70791 9.05078 4.59188C9.36751 4.5489 9.68652 4.51022 10.0078 4.47584C10.3337 4.44146 10.6549 4.41138 10.9785 4.38774C11.1768 4.3727 11.3841 4.35981 11.596 4.34692C11.7419 4.33832 11.8923 4.33187 12.0426 4.32543C11.9857 4.20724 11.9401 4.08261 11.9082 3.95583C11.8717 3.80971 11.8512 3.65715 11.8512 3.50029C11.8512 3.23169 11.9082 2.97598 12.0107 2.74176C12.1178 2.49894 12.2751 2.27976 12.4688 2.09712C12.6624 1.91447 12.8949 1.7662 13.1523 1.66736C13.4007 1.57066 13.6719 1.51694 13.9567 1.51694C14.2415 1.51694 14.5127 1.57066 14.7611 1.66736C15.0186 1.76835 15.251 1.91662 15.4447 2.09712C15.6383 2.27976 15.7956 2.49894 15.9027 2.74176C16.0052 2.97598 16.0622 3.23169 16.0622 3.50029C16.0622 3.6593 16.0417 3.81401 16.0029 3.96443C15.9688 4.0998 15.9186 4.23088 15.8548 4.35551C16.028 4.36625 16.1966 4.377 16.3607 4.38989C16.5817 4.40493 16.8118 4.42427 17.0488 4.44576C17.402 4.47799 17.7529 4.51452 18.1061 4.5575C18.4593 4.59833 18.8102 4.6456 19.1589 4.69717C19.9495 4.81321 20.6764 4.95503 21.3327 5.12263C21.9935 5.29239 22.5882 5.49008 23.1077 5.72C23.6501 5.95852 24.1126 6.23357 24.4863 6.54729C24.8646 6.86317 25.1517 7.21772 25.3454 7.61525C25.3613 7.64533 25.375 7.67756 25.3841 7.71409C25.3932 7.74847 25.3978 7.78285 25.3978 7.81938C25.3978 7.94186 25.3454 8.05145 25.2611 8.13096L25.2542 8.13741C25.1699 8.21261 25.056 8.25989 24.9307 8.25989H2.98275C2.97363 8.25989 2.9668 8.25989 2.95996 8.25774C2.93034 8.25559 2.89844 8.25129 2.87109 8.24485C2.83919 8.23625 2.80729 8.22551 2.77539 8.21047C2.76855 8.20832 2.76172 8.20402 2.75488 8.19972C2.64779 8.1417 2.57259 8.04931 2.53841 7.94401C2.50423 7.83872 2.51107 7.72269 2.56803 7.61954C2.57031 7.6131 2.57487 7.60665 2.57943 7.6002C2.80273 7.21127 3.10579 6.85457 3.49316 6.53225C3.87826 6.21423 4.34766 5.92629 4.90137 5.67273ZM18.596 3.52177C18.6872 3.60773 18.7327 3.72161 18.7327 3.83335C18.7327 3.94724 18.6872 4.05898 18.596 4.14493C18.5049 4.23088 18.3841 4.27386 18.2656 4.27386C18.1449 4.27386 18.0264 4.23088 17.9352 4.14493C17.5273 3.76029 17.402 3.42508 17.4225 3.10276C17.443 2.78688 17.6071 2.50109 17.7803 2.19381C18.0081 1.78984 18.2702 1.32999 17.86 0.657417L17.8555 0.648822C17.7939 0.54568 17.7826 0.427495 17.8145 0.322204C17.8464 0.212615 17.9216 0.115919 18.0332 0.0557521C18.1449 -0.00441444 18.2725 -0.0173073 18.3864 0.012776C18.5026 0.0428593 18.6051 0.11377 18.6689 0.219061C19.0039 0.764858 19.0723 1.21396 19.013 1.60289C18.9538 1.98968 18.7738 2.30985 18.6051 2.60638C18.4229 2.933 18.2656 3.2102 18.596 3.52177ZM22.1279 3.52177C22.2191 3.60773 22.2646 3.72161 22.2646 3.83335C22.2646 3.94724 22.2191 4.05898 22.1279 4.14493C22.0368 4.23088 21.916 4.27386 21.7975 4.27386C21.6768 4.27386 21.5583 4.23088 21.4671 4.14493C21.0592 3.76029 20.9339 3.42508 20.9544 3.10276C20.9749 2.78688 21.139 2.50109 21.3122 2.19381C21.4284 1.98753 21.556 1.7662 21.597 1.51909C21.638 1.27412 21.5993 0.99478 21.3919 0.657417C21.3281 0.552126 21.3145 0.431793 21.3464 0.324353C21.3783 0.214764 21.4535 0.118067 21.5651 0.0579009C21.6768 -0.00226564 21.8044 -0.0151585 21.9183 0.0149248C22.0322 0.0450081 22.137 0.115919 22.2008 0.22121C22.5358 0.767006 22.6042 1.21611 22.5449 1.60504C22.4857 1.99183 22.3057 2.312 22.137 2.60853C22.0413 2.77829 21.9502 2.9373 21.932 3.08557C21.9137 3.22524 21.9616 3.36491 22.1279 3.52177ZM9.37891 4.14708C9.28776 4.23303 9.16699 4.276 9.0485 4.276C8.92773 4.276 8.80925 4.23303 8.7181 4.14708C8.62695 4.06112 8.58138 3.94724 8.58138 3.8355C8.58138 3.72161 8.62695 3.60987 8.7181 3.52392C9.05078 3.2102 8.89356 2.933 8.70899 2.61068C8.54037 2.312 8.35807 1.99397 8.30111 1.60504C8.24186 1.21396 8.31022 0.764858 8.64518 0.219061C8.70898 0.11377 8.8138 0.0428593 8.93001 0.0149248C9.04622 -0.0130097 9.17155 -0.00226564 9.2832 0.0600497C9.39486 0.120216 9.47005 0.219061 9.49967 0.32865C9.5293 0.438239 9.5179 0.556424 9.45182 0.661715C9.04167 1.33214 9.30371 1.79413 9.53158 2.19596C9.70703 2.50324 9.86882 2.78903 9.88932 3.10491C9.91211 3.42723 9.78451 3.76244 9.37891 4.14708Z" fill="white"/>
</g>
<defs>
<clipPath id="clip0_1_107">
<rect width="28" height="24" fill="white"/>
</clipPath>
</defs>
</svg>
