<svg width="28" height="19" viewBox="0 0 28 19" fill="none" xmlns="http://www.w3.org/2000/svg">
<g clip-path="url(#clip0_1_110)">
<path fill-rule="evenodd" clip-rule="evenodd" d="M21.1003 10.958C21.2324 12.0882 20.0703 13.0635 19.0518 12.7536C18.9105 13.002 18.7988 13.3141 18.7145 13.6924C18.5208 14.5719 18.5778 14.3031 18.6621 15.153C18.7761 16.2878 18.653 17.0602 17.9238 17.3906V17.8258H3.16278V17.3906C2.59539 17.1878 2.3493 16.6318 2.43589 15.7135C2.62502 13.9886 2.50653 13.4486 2.07358 12.7992C1.31252 12.8265 0.763362 12.6442 0.419286 12.2614C-0.280258 11.4844 -0.0683439 10.3428 0.806656 9.79362C0.986669 9.67969 1.19858 9.59538 1.44468 9.54297C1.93231 9.44043 2.28094 9.43815 2.73895 9.65007C3.69826 10.0944 4.40236 11.2178 4.85353 12.5827L9.77541 12.7148C10.1126 12.7604 10.3268 12.9085 10.4681 13.1136C10.6026 12.9154 10.794 12.765 11.0879 12.6966C12.6192 12.6305 13.7175 12.8333 14.8363 12.8333H16.1397C16.4063 12.8356 16.5453 12.7148 16.5908 12.5007C16.9076 11.5299 17.4636 10.7575 18.1449 10.0876C18.596 9.64551 18.6781 9.48145 19.3298 9.50195C20.084 9.52702 20.9089 10.0488 21.1003 10.958ZM22.2236 0H26.6898L28 5.16797H20.9225L22.2236 0ZM24.8919 5.94727V17.3952H26.6214C26.8607 17.3952 27.0544 17.5889 27.0544 17.8281C27.0544 18.0674 26.8607 18.2611 26.6214 18.2611H22.3011C22.0619 18.2611 21.8682 18.0674 21.8682 17.8281C21.8682 17.5889 22.0619 17.3952 22.3011 17.3952H24.0306V5.94727H24.8919ZM2.94175 9.24675H2.94403C3.43849 8.1416 4.21551 7.86361 5.2728 8.23503L6.40757 12.1315H5.18166L4.82163 11.3955L4.42515 10.5843C4.2383 10.2653 4.0241 9.99642 3.77801 9.77539C3.52736 9.55208 3.24936 9.37663 2.94175 9.24675ZM5.74904 8.26009C5.76271 8.25326 5.77638 8.24186 5.78322 8.22363C6.20021 7.25977 7.35321 6.98861 8.29657 7.40104C8.29657 7.39876 8.29884 7.39648 8.29884 7.39648L8.55633 12.3617H6.92482L5.74904 8.26009ZM8.80242 7.2985C9.10776 6.0293 12.0016 6.28906 12.266 7.16406C12.3047 7.16178 11.9675 11.849 11.9424 12.3708H11.5117C11.2155 12.3708 11.1654 12.3662 10.8828 12.4551C10.7438 12.4984 10.6048 12.5417 10.4658 12.585L10.099 12.4482C9.85516 12.3571 9.82554 12.3708 9.56577 12.3708H9.02345L8.81382 7.30078L8.80242 7.2985ZM12.6442 7.51042C12.6533 7.51042 12.6647 7.50814 12.6738 7.50358C13.722 6.94531 15.1781 7.35091 15.3194 8.08008L15.2487 8.10742L14.1003 12.3617H12.4027L12.6442 7.51042ZM15.668 8.41504C15.6839 8.41732 15.6999 8.41276 15.7158 8.39909C16.5293 7.76107 17.7233 8.02995 18.2702 9.36296H18.2588C17.181 10.279 16.4108 11.2725 16.1306 12.3844H14.5697L15.668 8.41504Z" fill="#2396EF"/>
</g>
<defs>
<clipPath id="clip0_1_110">
<rect width="28" height="18.2588" fill="white"/>
</clipPath>
</defs>
</svg>
