<svg width="24" height="24" viewBox="0 0 24 24" fill="none" xmlns="http://www.w3.org/2000/svg">
<path d="M4.49934 7.02936C4.81483 6.93213 5.16339 7.04366 5.36229 7.31715C5.58329 7.62103 5.55714 8.03908 5.3 8.31304L4.59565 8.83478C4.26191 9.11206 4.06776 9.52264 4.06522 9.95652V17.913C4.07474 19.2091 5.12562 20.2561 6.42174 20.2609H10.4217V20.2783C10.854 20.2783 11.2043 20.6286 11.2043 21.0609C11.2043 21.4931 10.854 21.8435 10.4217 21.8435H6.42174C4.25781 21.8387 2.50478 20.0857 2.5 17.9217V9.95652C2.51384 9.0361 2.94588 8.17202 3.67391 7.6087L4.39565 7.06957L4.49934 7.02936ZM9.62174 2.8C10.9421 1.73864 12.8231 1.73864 14.1435 2.8L20.1522 7.59131C20.8642 8.16396 21.2822 9.02547 21.2913 9.93913L21.2826 17.913C21.2826 20.079 19.5268 21.8348 17.3609 21.8348H15.6217C14.5734 21.8348 13.7222 20.9875 13.7174 19.9391V16.3391L13.7093 16.2485C13.6666 16.0132 13.4606 15.8348 13.213 15.8348H10.6043C10.4691 15.8348 10.3394 15.8891 10.2446 15.9856C10.1498 16.082 10.0977 16.2126 10.1 16.3478V17.7217C10.1 18.154 9.74961 18.5043 9.31739 18.5043C8.88517 18.5043 8.53478 18.154 8.53478 17.7217V16.3478C8.53478 15.7966 8.75374 15.268 9.14349 14.8783C9.53324 14.4885 10.0619 14.2696 10.613 14.2696H13.2217C14.3661 14.2744 15.2913 15.2034 15.2913 16.3478V19.9391C15.2913 20.1216 15.4392 20.2696 15.6217 20.2696H17.4043C18.701 20.2696 19.7522 19.2184 19.7522 17.9217V9.95652C19.7458 9.51526 19.5415 9.10023 19.1957 8.82609L13.187 4.03478C12.4293 3.41099 11.336 3.41099 10.5783 4.03478L8.64783 5.47826C8.29004 5.73519 7.79171 5.65344 7.53478 5.29565C7.27785 4.93787 7.35961 4.43954 7.71739 4.18261L9.62174 2.8Z" fill="#2990F1"/>
</svg>
