<svg width="24" height="24" viewBox="0 0 24 24" fill="none" xmlns="http://www.w3.org/2000/svg">
<path d="M20 18.3301C20 21.619 15.4345 22 12 22C11.6538 22 11.3127 21.995 10.9776 21.985C10.5791 21.975 10.2652 21.644 10.2772 21.247C10.2883 20.851 10.6325 20.553 11.0189 20.55C11.3409 20.559 11.6679 20.563 12 20.563C16.3492 20.563 18.555 19.8121 18.555 18.3301C18.555 16.8341 16.3492 16.0751 12 16.0751C7.65082 16.0751 5.44503 16.8271 5.44503 18.3101C5.44503 18.7951 5.61811 19.4981 7.1205 20.004C7.49887 20.131 7.70113 20.538 7.57333 20.913C7.44453 21.288 7.03597 21.493 6.6566 21.363C4.46088 20.624 4 19.2951 4 18.3101C4 15.0873 8.38109 14.6559 11.7884 14.6397L12.3808 14.6399C14.6531 14.6515 20 14.8521 20 18.3301ZM12 2C14.9706 2 17.3867 4.40194 17.3867 7.35387C17.3867 10.3048 14.9706 12.7067 12 12.7067C9.02943 12.7067 6.61233 10.3048 6.61233 7.35387C6.61233 4.40194 9.02943 2 12 2ZM12 3.43696C9.82642 3.43696 8.05836 5.19392 8.05836 7.35387C8.05836 9.51281 9.82642 11.2698 12 11.2698C14.1736 11.2698 15.9416 9.51281 15.9416 7.35387C15.9416 5.19392 14.1736 3.43696 12 3.43696Z" fill="#6C7894"/>
</svg>
