<svg width="24" height="24" viewBox="0 0 24 24" fill="none" xmlns="http://www.w3.org/2000/svg">
<path d="M15.1393 2C18.1742 2 19.9918 3.85386 20 6.94923V16.0508C20 19.1461 18.1906 21 15.1476 21H12.4499C12.104 20.9611 11.8421 20.6629 11.8421 20.3079C11.8421 19.953 12.104 19.6548 12.4499 19.6159H15.1393C17.4586 19.6159 18.6265 18.4163 18.6265 16.0508V6.94923C18.6265 4.58366 17.4586 3.38411 15.1393 3.38411H7.85244C5.53314 3.38411 4.35704 4.58366 4.35704 6.94923V16.0508C4.35704 18.4163 5.53314 19.6159 7.85244 19.6159C8.1984 19.6548 8.46026 19.953 8.46026 20.3079C8.46026 20.6629 8.1984 20.9611 7.85244 21C4.81761 21 3 19.1461 3 16.0508V6.94923C3 3.84547 4.81761 2 7.85244 2H15.1393ZM14.8926 14.8344C15.2651 14.8344 15.567 15.1424 15.567 15.5223C15.567 15.9022 15.2651 16.2102 14.8926 16.2102H8.08273C7.71026 16.2102 7.40832 15.9022 7.40832 15.5223C7.40832 15.1424 7.71026 14.8344 8.08273 14.8344H14.8926ZM14.8926 10.8079C15.1528 10.7787 15.4066 10.9038 15.5457 11.13C15.6848 11.3563 15.6848 11.6437 15.5457 11.87C15.4066 12.0962 15.1528 12.2213 14.8926 12.1921H8.08273C7.73677 12.1531 7.47491 11.855 7.47491 11.5C7.47491 11.145 7.73677 10.8469 8.08273 10.8079H14.8926ZM10.6817 6.78985C11.0276 6.82875 11.2895 7.1269 11.2895 7.4819C11.2895 7.83689 11.0276 8.13504 10.6817 8.17395H8.09095C7.745 8.13504 7.48314 7.83689 7.48314 7.4819C7.48314 7.1269 7.745 6.82875 8.09095 6.78985H10.6817Z" fill="#6C7894"/>
</svg>
