<svg width="50" height="50" viewBox="0 0 50 50" fill="none" xmlns="http://www.w3.org/2000/svg">
<rect width="50" height="50" rx="12" fill="#3E7EF7"/>
<g clip-path="url(#clip0_1_239)">
<path d="M17.499 10H31.9668C32.3794 10 32.7554 10.1685 33.0264 10.4395C33.2974 10.7104 33.4658 11.0864 33.4658 11.499V18.7427V36.7432C33.4658 37.1558 33.2974 37.5317 33.0264 37.8027C32.7554 38.0737 32.3794 38.2422 31.9668 38.2422H30.7729V38.9062C30.7729 39.5093 30.2798 40.0024 29.6768 40.0024C29.0737 40.0024 28.5806 39.5093 28.5806 38.9062V38.2422H20.9243V38.9062C20.9243 39.5093 20.4312 40.0024 19.8281 40.0024C19.2251 40.0024 18.7319 39.5093 18.7319 38.9062V38.2422H17.499C17.0864 38.2422 16.7104 38.0737 16.4395 37.8027C16.1685 37.5317 16 37.1558 16 36.7432V18.7427V11.499C16 11.0864 16.1685 10.7104 16.4395 10.4395C16.7104 10.1685 17.0864 10 17.499 10ZM18.4902 20.9595C18.4902 20.6323 18.7563 20.3662 19.0835 20.3662C19.4106 20.3662 19.6768 20.6323 19.6768 20.9595V25.9399C19.6768 26.2671 19.4106 26.5332 19.0835 26.5332C18.7563 26.5332 18.4902 26.2671 18.4902 25.9399V20.9595ZM18.4902 12.5366C18.4902 12.2095 18.7563 11.9434 19.0835 11.9434C19.4106 11.9434 19.6768 12.2095 19.6768 12.5366V16.2354C19.6768 16.5625 19.4106 16.8286 19.0835 16.8286C18.7563 16.8286 18.4902 16.5625 18.4902 16.2354V12.5366ZM17.189 18.147H32.2793V11.499C32.2793 11.4136 32.2451 11.3354 32.1865 11.2793C32.1304 11.2231 32.0522 11.1865 31.9668 11.1865H17.499C17.4136 11.1865 17.3354 11.2207 17.2793 11.2793C17.2231 11.3354 17.1865 11.4136 17.1865 11.499V18.147H17.189ZM32.2769 19.3359H17.189V36.7407C17.189 36.8262 17.2231 36.9043 17.2817 36.9604C17.3379 37.0166 17.416 37.0532 17.5015 37.0532H31.9668C32.0522 37.0532 32.1304 37.019 32.1865 36.9604C32.2427 36.9043 32.2793 36.8262 32.2793 36.7407V19.3359H32.2769Z" fill="white" fill-opacity="0.81"/>
</g>
<defs>
<clipPath id="clip0_1_239">
<rect width="17.4658" height="30" fill="white" transform="translate(16 10)"/>
</clipPath>
</defs>
</svg>
